<svg width="22" height="25" viewBox="0 0 22 25" fill="none" xmlns="http://www.w3.org/2000/svg">
<path d="M17.1875 7.8125V6.25C17.1875 2.80371 14.3837 0 10.9375 0C7.49121 0 4.6875 2.80371 4.6875 6.25V7.8125H0V21.0938C0 23.2511 1.74888 25 3.90625 25H17.9688C20.1261 25 21.875 23.2511 21.875 21.0938V7.8125H17.1875ZM7.8125 6.25C7.8125 4.52686 9.21436 3.125 10.9375 3.125C12.6606 3.125 14.0625 4.52686 14.0625 6.25V7.8125H7.8125V6.25ZM15.625 12.1094C14.9778 12.1094 14.4531 11.5847 14.4531 10.9375C14.4531 10.2903 14.9778 9.76562 15.625 9.76562C16.2722 9.76562 16.7969 10.2903 16.7969 10.9375C16.7969 11.5847 16.2722 12.1094 15.625 12.1094ZM6.25 12.1094C5.60278 12.1094 5.07812 11.5847 5.07812 10.9375C5.07812 10.2903 5.60278 9.76562 6.25 9.76562C6.89722 9.76562 7.42188 10.2903 7.42188 10.9375C7.42188 11.5847 6.89722 12.1094 6.25 12.1094Z" fill="black" fill-opacity="0.4"/>
</svg>
