<svg width="26" height="22" viewBox="0 0 26 22" fill="none" xmlns="http://www.w3.org/2000/svg">
<path d="M8.86394 0H10.1255C10.4106 9.85947e-05 10.6849 0.122297 10.8932 0.341905C11.1015 0.561512 11.2282 0.862155 11.2476 1.18308C11.267 1.50401 11.1778 1.8213 10.9979 2.07084C10.818 2.32037 10.5609 2.48355 10.2785 2.52739L10.1255 2.53924H8.86394C8.60308 2.53865 8.35014 2.64038 8.14841 2.82702L8.0359 2.9506L4.92475 6.76962H10.124C10.9556 6.76946 11.758 7.11578 12.3773 7.74215C12.9966 8.36852 13.3891 9.23085 13.4797 10.1637H16.5203C16.6112 9.23116 17.0039 8.36924 17.6232 7.74321C18.2424 7.11719 19.0446 6.77111 19.876 6.77131L25.0918 6.76962L21.9671 2.94721C21.7904 2.73141 21.5529 2.59141 21.2951 2.55109L21.1391 2.53924H19.876C19.5909 2.53914 19.3166 2.41695 19.1083 2.19734C18.9 1.97773 18.7733 1.67709 18.7539 1.35616C18.7345 1.03523 18.8237 0.717942 19.0036 0.468407C19.1835 0.218873 19.4406 0.0556964 19.723 0.0118497L19.876 0H21.1406C21.9849 0.000436828 22.7985 0.358008 23.4207 1.00215L23.6202 1.22561L29.0835 7.9072C29.1585 8.00031 29.22 8.10188 29.2665 8.20853C29.7255 8.85857 30 9.68298 30 10.5785V16.4983C30 17.9574 29.4864 19.3568 28.5721 20.3886C27.6578 21.4204 26.4178 22 25.1248 22H21.3761C20.0831 22 18.843 21.4204 17.9288 20.3886C17.0145 19.3568 16.5008 17.9574 16.5008 16.4983L16.4993 12.703H13.4977V16.4983C13.4977 17.9574 12.984 19.3568 12.0697 20.3886C11.1555 21.4204 9.91543 22 8.62243 22H4.87524C3.58225 22 2.34221 21.4204 1.42793 20.3886C0.51364 19.3568 0 17.9574 0 16.4983V10.5802C0 9.62881 0.309015 8.75869 0.819041 8.09172L0.876044 7.99862L0.942047 7.91059L6.37832 1.23238C6.95132 0.528466 7.73789 0.0934028 8.58193 0.0135425L8.86394 0H10.1255H8.86394Z" fill="black" fill-opacity="0.4"/>
</svg>
