<svg width="18" height="17" viewBox="0 0 18 17" fill="none" xmlns="http://www.w3.org/2000/svg">
<path d="M14.8452 0.146238C14.7993 0.0997446 14.7445 0.0628674 14.6842 0.0377594C14.6239 0.0126514 14.5591 -0.000184192 14.4938 1.99692e-06C14.4284 0.000188186 14.3638 0.0133925 14.3036 0.0388438C14.2434 0.0642952 14.1889 0.101484 14.1432 0.148238C14.0509 0.244278 14.0001 0.372707 14.0016 0.505874C14.0031 0.639041 14.0568 0.766295 14.1512 0.860238C14.8705 1.58086 15.4125 2.45878 15.7344 3.42471C16.0563 4.39065 16.1494 5.41818 16.0062 6.42624C15.9871 6.55785 16.0205 6.69168 16.099 6.799C16.1775 6.90632 16.295 6.97857 16.4262 7.00024C16.4909 7.01042 16.557 7.00757 16.6206 6.99187C16.6842 6.97617 16.744 6.94794 16.7965 6.90882C16.849 6.8697 16.8932 6.82049 16.9265 6.76406C16.9597 6.70764 16.9814 6.64514 16.9902 6.58024C17.1557 5.41492 17.0481 4.22708 16.6759 3.11048C16.3036 1.99388 15.6769 0.979096 14.8452 0.146238ZM3.62319 2.03624C3.63781 1.67933 3.77145 1.33758 4.00281 1.06542C4.23417 0.793258 4.54995 0.606348 4.89985 0.534459C5.24975 0.462569 5.61364 0.509836 5.93357 0.668729C6.25349 0.827623 6.51104 1.089 6.66519 1.41124C6.86368 1.23385 7.10329 1.1088 7.36231 1.04739C7.62133 0.985992 7.89158 0.990186 8.14857 1.0596C8.40556 1.12901 8.64117 1.26144 8.83405 1.4449C9.02694 1.62836 9.171 1.85705 9.25319 2.11024L9.34119 2.37924C9.54202 2.21183 9.78081 2.09618 10.0367 2.04242C10.2925 1.98866 10.5577 1.99842 10.8089 2.07084C11.0601 2.14327 11.2898 2.27615 11.4778 2.45787C11.6657 2.63959 11.8063 2.86461 11.8872 3.11324L12.9532 6.34424L13.5372 8.04824C13.9659 9.3009 14.096 10.6364 13.9172 11.9482L13.6472 13.9362C13.5885 14.368 13.4181 14.7769 13.1527 15.1224C12.8873 15.468 12.5362 15.7382 12.1342 15.9062L9.97619 16.8072C9.00519 17.2132 7.90819 16.9552 7.17219 16.2502C4.06219 13.2682 1.29319 12.2802 0.532194 12.0502C0.174194 11.9432 -0.131806 11.5312 0.058194 11.0782C0.208194 10.7232 0.568194 10.0992 1.34019 9.75824C1.93219 9.49524 2.70019 9.42824 3.68919 9.69024L1.76319 4.10524C1.632 3.70009 1.66634 3.2595 1.85874 2.87958C2.05113 2.49966 2.38597 2.21124 2.79019 2.07724C3.07019 1.98524 3.35619 1.97624 3.62319 2.03624ZM5.77419 5.68324L6.32919 7.36124C6.35088 7.4238 6.35993 7.49005 6.3558 7.55614C6.35168 7.62222 6.33447 7.68683 6.30517 7.74622C6.27587 7.8056 6.23507 7.85857 6.18514 7.90206C6.13521 7.94554 6.07713 7.97868 6.01429 7.99954C5.95144 8.0204 5.88508 8.02857 5.81905 8.02357C5.75302 8.01858 5.68865 8.00052 5.62966 7.97044C5.57067 7.94036 5.51824 7.89887 5.47541 7.84836C5.43259 7.79786 5.40022 7.73935 5.38019 7.67624L4.81019 5.95624L3.86019 3.43624L3.85619 3.42624C3.80787 3.27361 3.70121 3.14625 3.55942 3.0719C3.41764 2.99754 3.25223 2.98221 3.09919 3.02924C2.94791 3.08107 2.82288 3.18998 2.75076 3.33271C2.67865 3.47544 2.66517 3.6407 2.71319 3.79324L4.97019 10.3402C5.00193 10.4318 5.00635 10.5307 4.98292 10.6248C4.95949 10.7188 4.90922 10.8041 4.83822 10.8701C4.76723 10.9361 4.67857 10.98 4.58305 10.9966C4.48752 11.0131 4.38925 11.0015 4.30019 10.9632C2.96819 10.3922 2.18719 10.4772 1.74519 10.6732C1.49417 10.7842 1.2801 10.9646 1.12819 11.1932C2.26219 11.5812 4.92819 12.7142 7.86419 15.5292C8.33819 15.9832 9.01719 16.1252 9.59119 15.8852L11.7482 14.9842C11.9896 14.8836 12.2005 14.7215 12.36 14.5142C12.5194 14.3068 12.6219 14.0614 12.6572 13.8022L12.9272 11.8152C13.0849 10.6574 12.9698 9.47873 12.5912 8.37324L12.0062 6.66624L12.0042 6.66124L10.9372 3.42624V3.42324C10.8913 3.27732 10.7914 3.15445 10.6579 3.07974C10.5244 3.00502 10.3675 2.9841 10.2191 3.02126C10.0707 3.05842 9.94212 3.15085 9.85961 3.27965C9.77711 3.40846 9.74691 3.56391 9.77519 3.71424L10.6302 6.34724C10.6672 6.47205 10.6541 6.60639 10.5937 6.72169C10.5332 6.83699 10.4301 6.92415 10.3064 6.96466C10.1827 7.00517 10.048 6.99581 9.93109 6.93859C9.81415 6.88137 9.72414 6.78079 9.68019 6.65824L9.67519 6.66024L8.84419 4.10324C8.8304 4.06042 8.81839 4.01705 8.80819 3.97324L8.30219 2.41824C8.24797 2.27348 8.13996 2.15523 8.00069 2.08815C7.86143 2.02107 7.70164 2.01033 7.55464 2.05816C7.40765 2.106 7.28479 2.20873 7.21168 2.34493C7.13856 2.48113 7.12084 2.64029 7.16219 2.78924L7.76419 4.64424C7.77619 4.68124 7.78419 4.71924 7.78719 4.75724L8.31419 6.34924C8.33481 6.41162 8.34294 6.47744 8.33812 6.54296C8.3333 6.60848 8.31562 6.67241 8.28609 6.7311C8.25656 6.78978 8.21576 6.84208 8.16602 6.885C8.11628 6.92792 8.05857 6.96062 7.99619 6.98124C7.93382 7.00186 7.86799 7.00999 7.80247 7.00516C7.73695 7.00034 7.67302 6.98266 7.61433 6.95313C7.55565 6.9236 7.50335 6.8828 7.46043 6.83306C7.41751 6.78332 7.38481 6.72562 7.36419 6.66324L5.79319 1.91324C5.74307 1.76206 5.63494 1.637 5.4926 1.56554C5.35026 1.49409 5.18537 1.48211 5.03419 1.53224C4.88302 1.58236 4.75795 1.69049 4.6865 1.83283C4.61505 1.97517 4.60307 2.14006 4.65319 2.29124L5.75519 5.62124L5.77819 5.68124H5.77519L5.77419 5.68324ZM13.2412 2.07524C13.2975 2.04148 13.36 2.01914 13.4249 2.00952C13.4899 1.99989 13.5561 2.00315 13.6198 2.01913C13.6835 2.0351 13.7435 2.06347 13.7962 2.10261C13.8489 2.14175 13.8935 2.19089 13.9272 2.24724L14.2232 2.74224C14.7218 3.5761 14.9893 4.52772 14.9982 5.49924C14.9995 5.63185 14.9481 5.75955 14.8553 5.85426C14.7625 5.94896 14.6358 6.00291 14.5032 6.00424C14.3706 6.00556 14.2429 5.95416 14.1482 5.86133C14.0535 5.7685 13.9995 5.64185 13.9982 5.50924C13.9911 4.71502 13.7727 3.93701 13.3652 3.25524L13.0692 2.76124C13.0354 2.7049 13.0131 2.64247 13.0035 2.5775C12.9938 2.51254 12.9971 2.44631 13.0131 2.38261C13.0291 2.3189 13.0574 2.25897 13.0966 2.20623C13.1357 2.15349 13.1848 2.10898 13.2412 2.07524Z" fill="#F17547"/>
</svg>
