<svg width="26" height="25" viewBox="0 0 26 25" fill="none" xmlns="http://www.w3.org/2000/svg">
<path d="M24.6586 4.71191L17.0531 0C16.268 1.35742 14.5297 2.30469 12.5024 2.30469C10.475 2.30469 8.73673 1.35742 7.95157 0L0.346103 4.71191C0.0375091 4.90723 -0.0874908 5.37598 0.0648529 5.76172L2.29923 11.3525C2.45548 11.7383 2.83048 11.8945 3.13907 11.7041L5.35001 10.3516C5.76407 10.0977 6.24845 10.4736 6.24845 11.0547V23.4375C6.24845 24.3018 6.80704 25 7.49845 25H17.4984C18.1899 25 18.7484 24.3018 18.7484 23.4375V11.0498C18.7484 10.4736 19.2328 10.0928 19.6469 10.3467L21.8578 11.6992C22.1664 11.8945 22.5414 11.7383 22.6977 11.3477L24.9359 5.76172C25.0922 5.37598 24.9672 4.90234 24.6586 4.71191Z" fill="black" fill-opacity="0.4"/>
</svg>
