<svg width="21" height="25" viewBox="0 0 21 25" fill="none" xmlns="http://www.w3.org/2000/svg">
<path d="M16.8777 5.31767L16.9786 5.53869L17.2147 5.59593C18.3071 5.86071 19 6.65838 19 7.5V10V10.5H19.5H20.5V14.5H19.5H19V15V17.499C18.9982 17.9054 18.8388 18.3135 18.5242 18.6604C18.2078 19.0093 17.7517 19.2756 17.2161 19.4037L16.979 19.4605L16.8777 19.6823L14.9129 23.9856C14.9128 23.9858 14.9127 23.9859 14.9127 23.9861C14.7874 24.2592 14.4318 24.5 13.965 24.5H5.53386C5.31236 24.4998 5.10217 24.4432 4.93182 24.3452C4.76174 24.2473 4.64748 24.1181 4.58749 23.9864L4.58733 23.9861L2.62233 19.6823L2.52142 19.4613L2.28528 19.4041C1.19291 19.1393 0.5 18.3416 0.5 17.5V7.50103C0.501808 7.09459 0.661162 6.68653 0.97577 6.33963C1.29223 5.99069 1.74834 5.72444 2.28388 5.59627L2.52105 5.5395L2.62233 5.31767L4.58733 1.01392L4.58749 1.01358C4.64748 0.881934 4.76174 0.752668 4.93182 0.65479C5.10214 0.556777 5.31227 0.500186 5.53371 0.5H13.9663C14.1877 0.500186 14.3979 0.556777 14.5682 0.65479C14.7383 0.752668 14.8525 0.881934 14.9125 1.01358L14.9127 1.01392L16.8777 5.31767ZM16.503 18H17.0032L17.003 17.4998L17 7.49985L16.9998 7H16.5H3H2.5V7.5V17.5V18H3H16.503Z" fill="white" stroke="white"/>
</svg>
